<svg xmlns="http://www.w3.org/2000/svg" xmlns:xlink="http://www.w3.org/1999/xlink" id="Layer_1" x="0px" y="0px" viewBox="0 0 512 512" style="enable-background:new 0 0 512 512;" xml:space="preserve">
<style type="text/css">
	.st0{fill-rule:evenodd;clip-rule:evenodd;fill:#C33149;}
	.st1{fill-rule:evenodd;clip-rule:evenodd;fill:#177E89;}
	.st2{fill-rule:evenodd;clip-rule:evenodd;fill:#F3A712;}
	.st3{fill-rule:evenodd;clip-rule:evenodd;fill:#BA2005;}
	.st4{fill:#373A4E;}
</style>
<polygon class="st0" points="119.5,216.7 154,195.4 273.2,269.1 273.2,121.7 414.8,34.3 414.8,181.7 244.4,286.9 "></polygon>
<polygon class="st1" points="383,364.7 244.4,286.9 119.5,364 383,512 "></polygon>
<polygon class="st2" points="273.2,121.7 76.1,0 76.1,147.3 154,195.4 "></polygon>
<polygon class="st3" points="273.2,269.1 154,195.4 273.2,121.7 "></polygon>
<polygon class="st4" points="244.4,286.9 119.5,216.7 119.5,364 "></polygon>
<polygon class="st0" points="119.5,216.7 154,195.4 273.2,269.1 273.2,121.7 414.8,34.3 414.8,181.7 244.4,286.9 "></polygon>
<polygon class="st1" points="383,364.7 244.4,286.9 119.5,364 383,512 "></polygon>
<polygon class="st2" points="273.2,121.7 76.1,0 76.1,147.3 154,195.4 "></polygon>
<polygon class="st3" points="273.2,269.1 154,195.4 273.2,121.7 "></polygon>
<polygon class="st4" points="244.4,286.9 119.5,216.7 119.5,364 "></polygon>
</svg>